<svg t="1597905294598" class="icon" viewBox="0 0 1635 1024" version="1.1" xmlns="http://www.w3.org/2000/svg" p-id="9965" width="16" height="16"><path d="M278.80179596 1012.04701614c-43.69125367 0-77.67248154-33.98122788-77.67248154-77.67248154v-121.36296272c0-33.98122788 19.4192791-63.10898782 48.54472161-72.81824112 242.72515298-97.08944321 296.12643242-135.92645645 305.83491324-145.63493728v-19.4192791c-29.12698746-33.98122788-48.54472161-72.81824112-67.96322822-121.36296272-19.4192791-19.4192791-33.98122788-53.39818955-33.98122787-87.38096238 0-24.27197456 4.85424042-43.69125367 19.4192791-63.10898781v-92.23597526c0-145.63493728 92.23597526-228.16243172 247.58016586-228.16243172s247.58016587 82.52749443 247.58016587 228.16243172v92.23597526c9.70770835 19.4192791 19.4192791 38.83624077 19.41927909 63.10898781 0 33.98122788-14.56349373 67.96322823-38.83624076 87.38096238-14.56349373 48.54472161-38.83624077 87.38096238-63.10898782 121.36296272v19.4192791c14.56349373 9.70770835 67.96322823 53.39818955 305.83491326 145.63493728 29.12698746 9.70770835 48.54472161 38.83624077 48.5447216 72.81824112v121.36296272c0 43.69125367-33.98122788 77.67248154-77.67248153 77.67248154h-883.52196693zM715.70815276 50.85334015c-116.50872231 0-174.7634697 53.39818955-174.76346968 160.19843102v116.50872229l-9.70770837 4.85424042c-4.85424042 9.70770835-9.70770835 24.27197456-9.70770835 33.98122788 0 14.56349373 9.70770835 33.98122788 19.4192791 43.69125367l9.70770835 4.85424041 4.85424042 9.70770836c14.56349373 43.69125367 33.98122788 87.38096238 63.10898781 116.5087223l9.70770836 9.70770837v63.1089878c-4.85424042 19.4192791-19.4192791 63.10898782-349.52539444 194.18043137-4.85424042 0-4.85424042 4.85424042-4.85424042 9.70770835v116.50872232c0 4.85424042 4.85424042 9.70770835 9.70770836 9.70770835h878.66849899c4.85424042 0 9.70770835-4.85424042 9.70770836-9.70770835v-121.36296273c0-4.85424042-4.85424042-9.70770835-4.85424042-9.70770836-330.10611533-126.21874809-344.67115403-169.90768433-349.52539443-189.32619095v-67.96322822l9.70770835-9.70770836c29.12698746-29.12698746 48.54472161-67.96322823 63.10898782-111.65370941l4.85424041-9.70770836 9.70770836-4.85424042c14.56349373-9.70770835 19.4192791-24.27197456 19.4192791-43.69125367 0-9.70770835-4.85424042-24.27197456-9.70770836-33.98122786l-4.85424042-9.70770837v-111.65370941c-14.56349373-106.80024147-72.81824112-160.19843101-194.18043136-160.19843102z" p-id="9966" fill="#1296db"></path><path d="M920.91882325 935.14556887c-8.69046021 0-14.48382568-2.89709473-20.27719117-8.69046022l-170.91046142-170.91046142c-5.79336547-5.79336547-8.69046021-11.58755493-8.6904602-20.27719117s2.89709473-14.48382568 8.6904602-20.27719116l14.48382568-14.48382568c5.79336547-5.79336547 14.48382568-8.69046021 20.27719117-8.6904602 8.69046021 0 14.48382568 2.89709473 20.27719117 8.6904602l139.04571532 139.04571533 292.57525634-295.47235107c5.79336547-5.79336547 14.48382568-8.69046021 20.27719117-8.69046021 8.69046021 0 14.48382568 2.89709473 20.27719115 8.69046021l11.58755495 11.58755492c11.58755493 11.58755493 11.58755493 28.96765137 0 40.55520631l-330.23336793 330.23336791c-5.79336547 5.79336547-14.48382568 8.69046021-17.3809204 8.69046021z" p-id="9967" fill="#d4237a"></path></svg>