<svg t="1597905049023" class="icon" viewBox="0 0 1303 1024" version="1.1" xmlns="http://www.w3.org/2000/svg" p-id="8587" width="16" height="16"><path d="M651.636364 98.963636L1177.418182 512 651.636364 925.127273 125.854545 512 651.636364 98.872727m0-98.872727L0 512l651.636364 512 651.636363-512z m0 0" p-id="8588"></path><path d="M654.290909 655.727273c-27.272727 0-49.272727 23.436364-49.272727 52.254545s22.109091 52.254545 49.272727 52.254546S703.636364 736.818182 703.636364 707.981818s-22.181818-52.254545-49.345455-52.254545zM761.654545 324.672727q-39.363636-37.636364-105.818181-37.636363-63.218182 0-102.145455 37.127272c-25.945455 24.763636-40.963636 58.909091-41.909091 90.381819s68.309091 24.909091 70.909091 9.381818c2.690909-16.454545 14.036364-43.036364 27.272727-55.072728s29.636364-18.181818 49.272728-18.181818c20.345455 0 36.618182 5.818182 48.581818 17.381818a56.127273 56.127273 0 0 1 18.036363 41.69091 55.2 55.2 0 0 1-10.30909 32.072727c-4.381818 6.145455-17.890909 19.109091-40.381819 38.963636s-37.527273 37.636364-45.036363 53.490909-11.290909 36.054545-11.290909 60.654546c0 2.4 0.163636 9.090909 0.309091 20h70.145454c-0.381818-23.018182 1.454545-38.981818 5.363636-47.854546s14.054545-20.781818 30.327273-35.4q47.272727-42.490909 61.618182-67.127272a101.563636 101.563636 0 0 0 14.345455-52.327273q0-49.981818-39.29091-87.545455z" p-id="8589"></path></svg>