<svg t="1597911710533" class="icon" viewBox="0 0 1024 1024" version="1.1" xmlns="http://www.w3.org/2000/svg" p-id="10998" width="16" height="16"><path d="M592.282 62.26c-14.848-5.94-30.72-3.687-44.75 6.86L277.3 306.278H71.987c-22.937 0-42.291 19.354-42.291 42.292v361.984c0 22.937 19.354 42.29 42.291 42.29h206.029l271.667 207.668c6.759 6.349 16.384 9.933 26.624 9.933 5.018 0 11.776 0 19.251-3.687 13.517-6.758 23.04-22.63 23.04-38.502V101.274c0-17.101-10.547-32.768-26.316-39.015z m-58.266 132.914v647.783L320.102 678.093c-6.758-6.349-16.384-9.933-26.624-9.933H116.224v-277.3h177.254c9.216 0 18.33-2.969 26.932-8.703l213.606-186.983z m302.08 317.133c-2.15-84.275-41.37-160.973-107.52-210.637l-0.717-0.512c-18.944-12.595-44.339-9.42-58.573 8.5-12.595 18.944-9.42 44.236 7.68 57.958 45.466 34.509 72.602 89.498 72.602 147.046 0 58.061-25.702 110.9-69.734 144.487-9.933 6.553-16.282 17.305-17.51 29.491-1.23 11.878 2.866 23.45 10.956 31.54 6.349 6.348 16.486 14.745 31.437 14.745 10.24 0 19.865-3.584 26.624-9.933 66.662-51.814 104.755-129.126 104.755-212.685z" p-id="10999" fill="#f4ea29"></path><path d="M802.509 174.285c-9.319-6.042-20.275-7.885-31.027-5.427-11.572 2.764-21.402 10.24-27.034 20.172-6.246 9.421-8.294 20.583-5.734 31.54 2.764 11.57 10.24 21.401 20.89 27.443 93.9 56.32 152.166 159.232 152.166 268.595 0 111.411-57.55 211.866-154.83 269.005-18.431 12.288-25.292 37.273-15.462 56.73 7.27 14.54 23.552 20.991 36.557 20.991 7.27 0 15.77-2.97 22.221-6.246 119.091-69.632 196.096-203.366 196.096-340.173 2.048-141.107-72.192-272.384-193.843-342.63z" p-id="11000" fill="#f4ea29"></path></svg>